<?xml version="1.0" encoding="UTF-8" standalone="no"?>
<svg
   width="1045"
   height="153"
   viewBox="0 0 1045 153"
   fill="none"
   version="1.1"
   id="svg6"
   sodipodi:docname="hedgehog-trace.svg"
   inkscape:version="1.1.2 (b8e25be833, 2022-02-05)"
   xmlns:inkscape="http://www.inkscape.org/namespaces/inkscape"
   xmlns:sodipodi="http://sodipodi.sourceforge.net/DTD/sodipodi-0.dtd"
   xmlns="http://www.w3.org/2000/svg"
   xmlns:svg="http://www.w3.org/2000/svg">
  <defs
     id="defs10" />
  <sodipodi:namedview
     id="namedview8"
     pagecolor="#505050"
     bordercolor="#ffffff"
     borderopacity="1"
     inkscape:pageshadow="0"
     inkscape:pageopacity="0"
     inkscape:pagecheckerboard="1"
     showgrid="false"
     inkscape:zoom="1.4142136"
     inkscape:cx="493.91408"
     inkscape:cy="129.40054"
     inkscape:window-width="2560"
     inkscape:window-height="1417"
     inkscape:window-x="-8"
     inkscape:window-y="-8"
     inkscape:window-maximized="1"
     inkscape:current-layer="svg6" />
  <path
     d="M 2.1960548,64.904861 438.031,65.1472 c 0,0 8.88,55.7858 9.321,56.4728 0.402,0.627 1.413,0.768 1.818,0.255 0.138,-0.175 0.447,-1.809 0.687,-3.63 8.868,-67.2774 11.079,-83.251 11.595,-83.7662 0.493,-0.4936 0.579,-0.5036 1.225,-0.1414 0.761,0.4258 0.788,0.5781 1.175,6.4838 0.266,4.0444 0.658,9.7857 0.792,11.5881 0.068,0.9105 1.559,23.1446 3.314,49.4087 3.086,46.175 3.209,47.769 3.725,48.199 0.638,0.533 0.991,0.558 1.601,0.112 0.404,-0.295 1.177,-7.049 6.54,-57.1134 3.345,-31.2282 6.146,-57.1498 6.225,-57.6034 0.177,-1.0267 0.951,-1.5078 1.801,-1.1204 0.329,0.1498 0.657,0.5341 0.728,0.854 0.073,0.3199 1.683,26.0247 3.58,57.1218 1.897,31.0974 3.504,56.7944 3.573,57.1054 0.068,0.312 0.359,0.692 0.647,0.846 0.843,0.451 1.697,-0.273 1.882,-1.598 0.083,-0.598 2.271,-20.799 4.862,-44.893 7.991,-74.317 7.378,-68.937 7.9,-69.3183 0.254,-0.1856 0.611,-0.3377 0.795,-0.3377 0.573,0 1.352,0.9872 1.356,1.7191 0.003,0.3851 1.711,26.1389 3.796,57.2303 3.705,55.2566 3.803,56.5396 4.338,56.9726 0.69,0.559 1.59,0.28 1.861,-0.577 0.105,-0.335 2.778,-26.224 5.94,-57.5314 5.364,-53.1146 5.783,-56.952 6.268,-57.3679 1.083,-0.9291 1.887,-0.2957 2.101,1.6552 0.081,0.7355 1.819,26.5512 3.862,57.3681 3.545,53.465 3.739,56.051 4.23,56.476 0.283,0.245 0.604,0.446 0.713,0.446 0.109,0 0.443,-0.201 0.741,-0.446 0.508,-0.416 0.634,-1.356 1.929,-14.326 0.762,-7.634 2.651,-26.43 4.198,-41.768 1.547,-15.3384 3.508,-34.8218 4.358,-43.2964 1.086,-10.8354 1.655,-15.5786 1.915,-15.9815 0.664,-1.0262 2.037,-0.5596 2.257,0.7671 0.076,0.4536 1.748,19.9069 3.716,43.2297 1.968,23.3231 3.634,42.6701 3.703,42.9951 0.08,0.375 0.277,0.561 0.542,0.509 0.331,-0.064 0.591,-1.077 1.263,-4.919 2.456,-14.05 5.592,-28.5115 7.096,-32.7273 2.358,-6.6109 6.989,-13.5192 12.959,-19.3342 l 2.462,-2.3806 H 1042.6"
     stroke="#ffffff"
     stroke-width="4.33015"
     stroke-linecap="round"
     id="path2"
     sodipodi:nodetypes="ccccccccccccccccsccccssccccccccssccscccsccccccc" />
  <path
     d="m 1042.6,62.7849 c -149.72634,-0.02491 -299.45267,-0.05556 -449.179,0 l -2.684,-2.5674 C 578.7,48.8825 570.17,31.9054 567.056,13.0875 566.483,9.61998 565.895,4.74989 565.895,3.46016 565.895,2.98874 565.01,2.9783 526.988,3.0053 496.669,3.02694 487.472,3.10641 485.328,3.36593 475.028,4.61185 466.189,7.94415 459.17,13.2266 443.25889,27.401374 438.31111,45.623305 438.01599,65.15368 438.00999,65.55152 2.1960548,64.904861 2.1960548,64.904861"
     stroke="#ffffff"
     stroke-width="4.33015"
     stroke-linecap="round"
     id="path4"
     sodipodi:nodetypes="ccccscccsc" />
</svg>
