<?xml version="1.0" encoding="UTF-8" standalone="no"?>
<svg
   width="359.23087"
   height="151.79637"
   viewBox="0 0 359.23087 151.79637"
   fill="none"
   version="1.1"
   id="svg6"
   sodipodi:docname="hedgehog-trace-short.svg"
   inkscape:version="1.1.2 (b8e25be833, 2022-02-05)"
   xmlns:inkscape="http://www.inkscape.org/namespaces/inkscape"
   xmlns:sodipodi="http://sodipodi.sourceforge.net/DTD/sodipodi-0.dtd"
   xmlns="http://www.w3.org/2000/svg"
   xmlns:svg="http://www.w3.org/2000/svg">
  <defs
     id="defs10" />
  <sodipodi:namedview
     id="namedview8"
     pagecolor="#505050"
     bordercolor="#ffffff"
     borderopacity="1"
     inkscape:pageshadow="0"
     inkscape:pageopacity="0"
     inkscape:pagecheckerboard="1"
     showgrid="false"
     inkscape:zoom="1.4142136"
     inkscape:cx="112.78353"
     inkscape:cy="111.72287"
     inkscape:window-width="2560"
     inkscape:window-height="1417"
     inkscape:window-x="-8"
     inkscape:window-y="-8"
     inkscape:window-maximized="1"
     inkscape:current-layer="svg6"
     fit-margin-top="0"
     fit-margin-left="0"
     fit-margin-right="0"
     fit-margin-bottom="0" />
  <path
     d="M 2.1650751,64.073162 103.18497,64.315501 c 0,0 8.88,55.785799 9.321,56.472799 0.402,0.627 1.413,0.768 1.818,0.255 0.138,-0.175 0.447,-1.809 0.687,-3.63 8.868,-67.277399 11.079,-83.250999 11.595,-83.766199 0.493,-0.4936 0.579,-0.5036 1.225,-0.1414 0.761,0.4258 0.788,0.5781 1.175,6.4838 0.266,4.0444 0.658,9.7857 0.792,11.5881 0.068,0.9105 1.559,23.1446 3.314,49.408699 3.086,46.175 3.209,47.769 3.725,48.199 0.638,0.533 0.991,0.558 1.601,0.112 0.404,-0.295 1.177,-7.049 6.54,-57.113399 3.345,-31.2282 6.146,-57.1498 6.225,-57.6034 0.177,-1.0267 0.951,-1.5078 1.801,-1.1204 0.329,0.1498 0.657,0.5341 0.728,0.854 0.073,0.3199 1.683,26.0247 3.58,57.1218 1.897,31.097399 3.504,56.794399 3.573,57.105399 0.068,0.312 0.359,0.692 0.647,0.846 0.843,0.451 1.697,-0.273 1.882,-1.598 0.083,-0.598 2.271,-20.799 4.862,-44.893 7.991,-74.316999 7.378,-68.936999 7.9,-69.318299 0.254,-0.1856 0.611,-0.3377 0.795,-0.3377 0.573,0 1.352,0.9872 1.356,1.7191 0.003,0.3851 1.711,26.1389 3.796,57.2303 3.705,55.256599 3.803,56.539599 4.338,56.972599 0.69,0.559 1.59,0.28 1.861,-0.577 0.105,-0.335 2.778,-26.224 5.94,-57.531399 5.364,-53.1146 5.783,-56.952 6.268,-57.3679 1.083,-0.9291 1.887,-0.2957 2.101,1.6552 0.081,0.7355 1.819,26.5512 3.862,57.3681 3.545,53.464999 3.739,56.050999 4.23,56.475999 0.283,0.245 0.604,0.446 0.713,0.446 0.109,0 0.443,-0.201 0.741,-0.446 0.508,-0.416 0.634,-1.356 1.929,-14.326 0.762,-7.634 2.651,-26.43 4.198,-41.767999 1.547,-15.3384 3.508,-34.8218 4.358,-43.2964 1.086,-10.8354 1.655,-15.5786 1.915,-15.9815 0.664,-1.0262 2.037,-0.5596 2.257,0.7671 0.076,0.4536 1.748,19.9069 3.716,43.2297 1.968,23.323099 3.634,42.670099 3.703,42.995099 0.08,0.375 0.277,0.561 0.542,0.509 0.331,-0.064 0.591,-1.077 1.263,-4.919 2.456,-14.05 5.592,-28.511499 7.096,-32.727299 2.358,-6.6109 6.989,-13.5192 12.959,-19.3342 l 2.462,-2.3806 h 98.49083"
     stroke="#ffffff"
     stroke-width="4.33015"
     stroke-linecap="round"
     id="path2"
     sodipodi:nodetypes="ccccccccccccccccsccccssccccccccssccscccsccccccc" />
  <path
     d="m 357.0658,61.953201 c -149.72634,-0.02491 51.2355,-0.05556 -98.49083,0 l -2.684,-2.5674 c -12.037,-11.335 -20.567,-28.3121 -23.681,-47.13 -0.573,-3.4675197 -1.161,-8.3376097 -1.161,-9.6273397 0,-0.47142 -0.885,-0.48186 -38.907,-0.45486 -30.319,0.02164 -39.516,0.10111 -41.66,0.36063 -10.3,1.24592 -19.139,4.57822 -26.158,9.8606697 -15.91111,14.174774 -20.85889,32.396705 -21.15401,51.92708 -0.006,0.39784 -101.0048849,-0.248819 -101.0048849,-0.248819"
     stroke="#ffffff"
     stroke-width="4.33015"
     stroke-linecap="round"
     id="path4"
     sodipodi:nodetypes="ccccscccsc" />
</svg>
