<svg width="40" height="40" viewBox="0 0 40 40" fill="none" xmlns="http://www.w3.org/2000/svg">
<mask id="mask0_1233_9506" style="mask-type:alpha" maskUnits="userSpaceOnUse" x="0" y="0" width="40" height="40">
<rect width="40" height="40" fill="#D9D9D9"/>
</mask>
<g mask="url(#mask0_1233_9506)">
<path d="M14.6293 30.1033L14.6294 30.1034C14.9176 30.2388 15.2215 30.2959 15.5222 30.2959C15.8225 30.2959 16.116 30.2346 16.3925 30.1098L16.3927 30.1097C16.6462 29.9953 16.8722 29.8386 17.0727 29.6549L17.0889 29.6401L17.1043 29.6246L33.7471 12.9819C34.1349 12.6036 34.3332 12.1147 34.3332 11.5807C34.3332 11.044 34.1335 10.5574 33.757 10.1754L33.734 10.152L33.7095 10.1302C33.3216 9.78506 32.8453 9.60156 32.3237 9.60156C31.7966 9.60156 31.3112 9.79132 30.9278 10.1649L30.9278 10.1648L30.9182 10.1744L15.5245 25.5844L9.05512 19.0997L9.04422 19.0887L9.03299 19.0782C8.65209 18.7192 8.1744 18.5259 7.64703 18.5259C7.12391 18.5259 6.64534 18.715 6.26489 19.0781L6.25395 19.0885L6.24334 19.0993C5.85802 19.49 5.6665 19.9861 5.6665 20.5224C5.6665 21.0686 5.86824 21.5664 6.25766 21.9558L6.25851 21.9567L13.9444 29.6254L13.9563 29.6373L13.9687 29.6488C14.1629 29.83 14.3824 29.9872 14.6293 30.1033Z" fill="white" stroke="white" stroke-width="2"/>
</g>
</svg>
