<svg width="49" height="49" viewBox="0 0 49 49" fill="none" xmlns="http://www.w3.org/2000/svg">
<mask id="mask0_1813_7048" style="mask-type:alpha" maskUnits="userSpaceOnUse" x="0" y="0" width="49" height="49">
<rect x="0.900635" y="0.1651" width="48" height="48" fill="#AAAAAA"/>
</mask>
<g mask="url(#mask0_1813_7048)">
<path d="M24.9056 29.6055C24.6959 29.6055 24.515 29.5737 24.3631 29.5103C24.2112 29.4468 24.0666 29.3349 23.9295 29.1747L14.471 19.7163C14.2536 19.5219 14.1417 19.2747 14.1353 18.9747C14.1289 18.6747 14.2436 18.4068 14.4795 18.1709C14.6923 17.9581 14.9506 17.8517 15.2545 17.8517C15.5583 17.8517 15.8265 17.9564 16.0591 18.166L24.9006 27.0421L33.7767 18.166C33.9734 17.9693 34.2218 17.8677 34.5218 17.8613C34.8218 17.8549 35.0897 17.9581 35.3256 18.1709C35.5384 18.4068 35.6448 18.6767 35.6448 18.9805C35.6448 19.2843 35.5412 19.5398 35.3341 19.747L25.9064 29.1747C25.7461 29.3349 25.5917 29.4468 25.4431 29.5103C25.2945 29.5737 25.1153 29.6055 24.9056 29.6055Z" fill="white"/>
</g>
</svg>
