<svg width="49" height="49" viewBox="0 0 49 49" fill="none" xmlns="http://www.w3.org/2000/svg">
<mask id="mask0_1813_7036" style="mask-type:alpha" maskUnits="userSpaceOnUse" x="0" y="0" width="49" height="49">
<rect x="0.900635" y="0.1651" width="48" height="48" fill="#404040"/>
</mask>
<g mask="url(#mask0_1813_7036)">
<path d="M24.9006 29.6612C24.7006 29.6612 24.5205 29.6279 24.3602 29.5612C24.2 29.4945 24.0429 29.3843 23.8891 29.2304L14.393 19.7343C14.1699 19.5112 14.0551 19.2478 14.0487 18.9439C14.0423 18.6401 14.1571 18.3702 14.393 18.1343C14.6289 17.8984 14.9006 17.7805 15.2083 17.7805C15.516 17.7805 15.7878 17.8984 16.0237 18.1343L24.9006 27.0113L33.7776 18.1343C34.0006 17.9113 34.2641 17.7965 34.5679 17.7901C34.8717 17.7837 35.1416 17.8984 35.3775 18.1343C35.6134 18.3702 35.7314 18.642 35.7314 18.9497C35.7314 19.2574 35.6134 19.5292 35.3775 19.7651L25.9122 29.2304C25.7583 29.3843 25.6012 29.4945 25.441 29.5612C25.2807 29.6279 25.1006 29.6612 24.9006 29.6612Z" fill="black"/>
</g>
</svg>
